HIERARCHY
ROOT RootJoint
{
    OFFSET   0.000000   0.000000   0.000000
    CHANNELS 6 Xposition Yposition Zposition Xrotation Yrotation Zrotation
    JOINT pelvis_lowerback
    {
        OFFSET   0.000000   0.093605   0.000000
        CHANNELS 3 Xrotation Yrotation Zrotation
        JOINT lowerback_torso
        {
            OFFSET   0.000000   0.100000   0.000000
            CHANNELS 3 Xrotation Yrotation Zrotation
            JOINT torso_head
            {
                OFFSET   0.000000   0.282350   0.000000
                CHANNELS 3 Xrotation Yrotation Zrotation
                End Site
                {
                    OFFSET   0.000000   0.192650   0.000000
                }
            }
            JOINT rTorso_Clavicle
            {
                OFFSET  -0.001000   0.157500   0.000000
                CHANNELS 3 Xrotation Yrotation Zrotation
                JOINT rShoulder
                {
                    OFFSET  -0.117647   0.000000   0.000000
                    CHANNELS 3 Xrotation Yrotation Zrotation
                    JOINT rElbow
                    {
                        OFFSET  -0.245000   0.000000   0.000000
                        CHANNELS 3 Xrotation Yrotation Zrotation
                        JOINT rWrist
                        {
                            OFFSET  -0.240000   0.000000   0.000000
                            CHANNELS 3 Xrotation Yrotation Zrotation
                            End Site
                            {
                                OFFSET  -0.116353  -0.002500   0.000000
                            }
                        }
                    }
                }
            }
            JOINT lTorso_Clavicle
            {
                OFFSET   0.001000   0.157500   0.000000
                CHANNELS 3 Xrotation Yrotation Zrotation
                JOINT lShoulder
                {
                    OFFSET   0.117647   0.000000   0.000000
                    CHANNELS 3 Xrotation Yrotation Zrotation
                    JOINT lElbow
                    {
                        OFFSET   0.245000   0.000000   0.000000
                        CHANNELS 3 Xrotation Yrotation Zrotation
                        JOINT lWrist
                        {
                            OFFSET   0.240000   0.000000   0.000000
                            CHANNELS 3 Xrotation Yrotation Zrotation
                            End Site
                            {
                                OFFSET   0.116353  -0.002500   0.000000
                            }
                        }
                    }
                }
            }
        }
    }
    JOINT rHip
    {
        OFFSET  -0.100000  -0.051395   0.000000
        CHANNELS 3 Xrotation Yrotation Zrotation
        JOINT rKnee
        {
            OFFSET   0.000000  -0.410000   0.000000
            CHANNELS 3 Xrotation Yrotation Zrotation
            JOINT rAnkle
            {
                OFFSET   0.000000  -0.390000   0.000000
                CHANNELS 3 Xrotation Yrotation Zrotation
                JOINT rToeJoint
                {
                    OFFSET   0.000000  -0.050000   0.130000
                    CHANNELS 3 Xrotation Yrotation Zrotation
                    End Site
                    {
                        OFFSET  -0.010000   0.002000   0.060000
                    }
                }
            }
        }
    }
    JOINT lHip
    {
        OFFSET   0.100000  -0.051395   0.000000
        CHANNELS 3 Xrotation Yrotation Zrotation
        JOINT lKnee
        {
            OFFSET   0.000000  -0.410000   0.000000
            CHANNELS 3 Xrotation Yrotation Zrotation
            JOINT lAnkle
            {
                OFFSET   0.000000  -0.390000   0.000000
                CHANNELS 3 Xrotation Yrotation Zrotation
                JOINT lToeJoint
                {
                    OFFSET   0.000000  -0.050000   0.130000
                    CHANNELS 3 Xrotation Yrotation Zrotation
                    End Site
                    {
                        OFFSET   0.010000   0.002000   0.060000
                    }
                }
            }
        }
    }
}
MOTION
Frames: 12
Frame Time:   0.008333
 -2.376719   0.925631   3.975860   0.000000   0.000000   0.000000   0.000000   0.000000   0.000000   0.000000   0.000000   0.000000   0.000000   0.000000   0.000000   0.000000   0.000000   0.000000   0.000000   0.000000   0.000000   0.000000   0.000000   0.000000   0.000000   0.000000   0.000000   0.000000   0.000000   0.000000   0.000000   0.000000   0.000000   0.000000   0.000000   0.000000   0.000000   0.000000   0.000000   0.000000   0.000000   0.000000   0.000000   0.000000   0.000000   0.000000   0.000000   0.000000   0.000000   0.000000   0.000000   0.000000   0.000000   0.000000   0.000000   0.000000   0.000000   0.000000   0.000000   0.000000   0.000000   0.000000   0.000000
 -2.376653   0.926088   3.975523  -0.271553  -0.025155  -0.001670   0.412533   0.043264   0.024276   0.040305  -0.149907  -0.029421  -0.275476   0.070412   0.035417   0.097613  -0.168429   0.103675   0.509126   0.320835   2.224165   0.020520   1.008431  -0.007115   0.124151  -0.631975  -2.580139   0.202795   0.204144  -0.205749   0.738931  -0.068530  -2.160506   0.013909  -0.669593   0.006643   0.176801   0.380495   2.709149   0.069227  -0.029131  -0.054030   0.576050   0.000278  -0.000275  -0.597115  -0.354775  -0.141329  -0.023615  -0.000041   0.000084  -0.032039   0.038918   0.060103   0.920502  -0.000468   0.000116  -0.903354   0.239480   0.179633   0.249384  -0.000516   0.000553
 -2.376607   0.926895   3.975080  -0.586761  -0.106435   0.000054   0.836561   0.098408   0.043941   0.135084  -0.280812  -0.064921  -0.530861   0.134566   0.073689   0.193476  -0.232548   0.880485   0.990313   0.752973   4.984175   0.047509   2.007033  -0.012772   0.269984  -0.902181  -4.451394   0.405259   0.330227  -1.103019   1.460931  -0.223083  -4.875789   0.032109  -1.326758   0.011944   0.382981   0.563261   4.703875   0.152234  -0.061764  -0.158444   1.183931   0.000751  -0.000837  -1.156604  -0.689568  -0.278114  -0.077555  -0.000144   0.000279  -0.038904   0.083089   0.175033   1.892834  -0.001369  -0.000185  -1.747139   0.465189   0.352800   0.443957  -0.000898   0.000768
 -2.376584   0.927670   3.974590  -0.894979  -0.221507   0.004642   1.244505   0.157792   0.055423   0.237821  -0.393120  -0.105983  -0.769229   0.193654   0.111241   0.280882  -0.219806   2.074535   1.434936   1.262099   8.090015   0.074218   2.960868  -0.016704   0.418319  -0.993190  -5.550603   0.595022   0.385509  -2.423287   2.157918  -0.459231  -7.948618   0.050242  -1.956244   0.015835   0.587550   0.623618   5.904121   0.225881  -0.094903  -0.303649   1.757061   0.001269  -0.001440  -1.679951  -1.001682  -0.409288  -0.134096  -0.000248   0.000451  -0.041782   0.124861   0.334447   2.816571  -0.002445  -0.000652  -2.534827   0.674050   0.518183   0.617755  -0.001211   0.000831
 -2.376579   0.928139   3.974098  -1.184515  -0.356935   0.010827   1.632890   0.216892   0.058617   0.336777  -0.493074  -0.151854  -0.993693   0.248498   0.147091   0.358812  -0.157725   3.507850   1.840062   1.830564  11.427185   0.097490   3.864367  -0.019218   0.567115  -0.984888  -6.082302   0.769085   0.388892  -3.983202   2.827709  -0.769190 -11.259236   0.066234  -2.555983   0.018599   0.790717   0.597730   6.519560   0.287658  -0.127478  -0.480595   2.288286   0.001754  -0.001976  -2.170042  -1.292461  -0.534803  -0.192843  -0.000348   0.000597  -0.046714   0.163938   0.529756   3.679289  -0.003524  -0.001108  -3.271247   0.867269   0.675742   0.770725  -0.001442   0.000809
 -2.376589   0.928102   3.973640  -1.452724  -0.506412   0.017562   2.000478   0.273294   0.054310   0.428865  -0.584594  -0.201628  -1.204549   0.299524   0.180882   0.426676  -0.066643   5.061841   2.203292   2.444311  14.918098   0.116009   4.715708  -0.020599   0.713957  -0.920366  -6.231790   0.925579   0.356990  -5.661680   3.467671  -1.143666 -14.726729   0.079171  -3.124694   0.020468   0.991611   0.512235   6.740923   0.339461  -0.158796  -0.681624   2.780174   0.002172  -0.002415  -2.628918  -1.563269  -0.654641  -0.252186  -0.000439   0.000712  -0.053973   0.200447   0.753318   4.482818  -0.004506  -0.001493  -3.959819   1.046083   0.825556   0.905512  -0.001596   0.000742
 -2.376637   0.927401   3.973240  -1.699663  -0.666984   0.026237   2.346664   0.325883   0.038468   0.513315  -0.669873  -0.264894  -1.401955   0.346989   0.215444   0.484970   0.038519   6.663360   2.522996   3.091786  18.514472   0.129498   5.514784  -0.021096   0.856268  -0.827042  -6.129048   1.064802   0.302932  -7.414361   4.054032  -1.560329 -18.192794   0.088592  -3.662485   0.021518   1.188880   0.383281   6.651951   0.383671  -0.188520  -0.899674   3.236537   0.002495  -0.002759  -3.058456  -1.815471  -0.768874  -0.311002  -0.000514   0.000799  -0.062449   0.234441   0.999002   5.231481  -0.005356  -0.001796  -4.603556   1.211576   0.967723   1.024788  -0.001686   0.000653
 -2.376690   0.925389   3.972258  -1.710418  -0.836956   0.009994   2.598214   0.370574   0.085575   0.527226  -0.749942  -0.378467  -1.779684   0.294291   0.206081   0.606960   0.295382   7.693277   2.971513   3.738069  22.102074   0.141772   6.438969  -0.024928   0.926638  -0.795144  -5.160035   1.218770   0.185632  -8.477114   4.327210  -1.939869 -21.689163   0.095859  -4.267846   0.022084   1.304153   0.227625   5.611515   0.070347  -0.350720  -1.054534   3.763671   0.002652  -0.003827  -3.274273  -2.161836  -0.718460  -0.236643  -0.000332   0.000195  -0.300757   0.372520   1.234655   5.574967  -0.004952  -0.001424  -5.085554   1.419320   1.216396   1.175309  -0.001944   0.000790
 -2.376738   0.922248   3.971051  -1.693082  -0.974118  -0.011571   2.883431   0.401906   0.134900   0.541116  -0.830688  -0.480931  -2.145993   0.240115   0.188223   0.697858   0.594153   8.522502   3.339976   4.405302  25.367857   0.146062   7.320237  -0.027700   1.011668  -0.674276  -4.201665   1.338347   0.022227  -9.305077   4.547503  -2.340374 -24.848722   0.097772  -4.847838   0.022408   1.414077   0.003838   4.612045  -0.272493  -0.511652  -1.174242   4.237215   0.002577  -0.004378  -3.472793  -2.487583  -0.672830  -0.146671  -0.000194  -0.000339  -0.592114   0.504286   1.439497   5.810222  -0.004335  -0.001080  -5.540075   1.612278   1.450754   1.312087  -0.002026   0.000895
 -2.376746   0.922012   3.970035  -1.764319  -1.104646  -0.019489   3.240038   0.435482   0.173644   0.607378  -0.903599  -0.578214  -2.485804   0.189546   0.168277   0.764497   0.916174   9.448255   3.636416   5.073085  28.437813   0.147001   8.147961  -0.029290   1.099721  -0.524639  -3.439389   1.427884  -0.172382 -10.206163   4.719495  -2.752116 -27.802049   0.097478  -5.394844   0.022350   1.522275  -0.233632   3.839540  -0.619673  -0.684857  -1.210711   4.851736   0.002096  -0.005215  -3.346812  -2.811166  -0.580873   0.008702  -0.000212  -0.001130  -0.869445   0.678175   1.453748   6.383744  -0.003462  -0.000561  -5.591084   1.827311   1.598821   1.488566  -0.001849   0.001133
 -2.376774   0.921913   3.969214  -1.783112  -1.223928  -0.014373   3.531521   0.468762   0.199617   0.660569  -0.969763  -0.665118  -2.792916   0.142515   0.147311   0.821395   1.221195  10.216186   3.878565   5.719134  31.293268   0.143647   8.929553  -0.029702   1.185797  -0.334731  -2.636908   1.506363  -0.355663 -10.932439   4.860183  -3.148341 -30.534284   0.094407  -5.912577   0.021748   1.627399  -0.505584   3.055848  -0.931115  -0.821217  -1.249829   5.355678   0.001665  -0.005353  -3.440574  -3.090769  -0.543042   0.127188  -0.000183  -0.001465  -1.092394   0.800560   1.446145   6.805352  -0.002743  -0.000394  -5.848268   1.991055   1.800907   1.644915  -0.001732   0.001158
 -2.376820   0.921841   3.968480  -1.763193  -1.324249  -0.002622   3.798376   0.499230   0.224407   0.696692  -1.031835  -0.742618  -3.081736   0.098686   0.126230   0.865906   1.508732  10.869639   4.073511   6.333512  33.919734   0.137236   9.661491  -0.029300   1.267145  -0.136586  -1.918233   1.572552  -0.529073 -11.535777   4.973893  -3.522638 -33.036960   0.089375  -6.397117   0.020769   1.725784  -0.777391   2.372875  -1.232775  -0.945093  -1.290845   5.782715   0.001311  -0.005159  -3.555214  -3.350355  -0.511505   0.217895  -0.000158  -0.001560  -1.310023   0.909464   1.433921   7.147639  -0.002174  -0.000262  -6.115952   2.140132   1.993962   1.769219  -0.001576   0.001117
